<svg width="50" height="50" viewBox="0 0 50 50" fill="none" xmlns="http://www.w3.org/2000/svg">
<circle cx="25" cy="25" r="25" fill="#737070"/>
<path fill-rule="evenodd" clip-rule="evenodd" d="M20 19.75C20 18.4239 20.5268 17.1521 21.4645 16.2145C22.4021 15.2768 23.6739 14.75 25 14.75C26.3261 14.75 27.5979 15.2768 28.5355 16.2145C29.4732 17.1521 30 18.4239 30 19.75C30 21.0761 29.4732 22.3479 28.5355 23.2855C27.5979 24.2232 26.3261 24.75 25 24.75C23.6739 24.75 22.4021 24.2232 21.4645 23.2855C20.5268 22.3479 20 21.0761 20 19.75ZM20 27.25C18.3424 27.25 16.7527 27.9085 15.5806 29.0806C14.4085 30.2527 13.75 31.8424 13.75 33.5C13.75 34.4946 14.1451 35.4484 14.8483 36.1517C15.5516 36.8549 16.5054 37.25 17.5 37.25H32.5C33.4946 37.25 34.4484 36.8549 35.1517 36.1517C35.8549 35.4484 36.25 34.4946 36.25 33.5C36.25 31.8424 35.5915 30.2527 34.4194 29.0806C33.2473 27.9085 31.6576 27.25 30 27.25H20Z" fill="#E6E6E6"/>
</svg>
