<svg width="31" height="31" viewBox="0 0 31 31" fill="none" xmlns="http://www.w3.org/2000/svg">
<path d="M26.1563 16.2362V14.7541L28.0163 13.1266C28.3591 12.8244 28.5841 12.4107 28.6515 11.9586C28.7188 11.5066 28.6242 11.0453 28.3844 10.6562L26.0981 6.78125C25.9282 6.48701 25.684 6.24261 25.3898 6.07257C25.0957 5.90254 24.762 5.81285 24.4222 5.8125C24.2116 5.81089 24.0022 5.84361 23.8022 5.90938L21.4481 6.70375C21.0422 6.43279 20.6182 6.19003 20.1791 5.97719L19.685 3.53594C19.5964 3.08993 19.3538 2.68929 18.9996 2.40415C18.6454 2.11901 18.2021 1.96754 17.7475 1.97625H13.2138C12.7591 1.96754 12.3159 2.11901 11.9617 2.40415C11.6075 2.68929 11.3648 3.08993 11.2763 3.53594L10.7822 5.97719C10.3404 6.19094 9.91322 6.43366 9.50344 6.70375L7.19781 5.87063C6.99563 5.81795 6.78626 5.79832 6.57781 5.8125C6.23805 5.81285 5.90435 5.90254 5.61019 6.07257C5.31603 6.24261 5.07176 6.48701 4.90188 6.78125L2.61563 10.6562C2.38951 11.0447 2.30548 11.4997 2.37794 11.9433C2.4504 12.3869 2.67484 12.7915 3.01281 13.0878L4.84375 14.7638V16.2459L3.01281 17.8734C2.66529 18.1718 2.43472 18.5837 2.36201 19.0359C2.28929 19.4881 2.37915 19.9515 2.61563 20.3438L4.90188 24.2188C5.07176 24.513 5.31603 24.7574 5.61019 24.9274C5.90435 25.0975 6.23805 25.1872 6.57781 25.1875C6.78837 25.1891 6.99778 25.1564 7.19781 25.0906L9.55188 24.2962C9.95776 24.5672 10.3818 24.81 10.8209 25.0228L11.315 27.4641C11.4036 27.9101 11.6462 28.3107 12.0004 28.5958C12.3546 28.881 12.7979 29.0325 13.2525 29.0237H17.825C18.2796 29.0325 18.7229 28.881 19.0771 28.5958C19.4313 28.3107 19.6739 27.9101 19.7625 27.4641L20.2566 25.0228C20.6984 24.8091 21.1255 24.5663 21.5353 24.2962L23.8797 25.0906C24.0797 25.1564 24.2891 25.1891 24.4997 25.1875C24.8395 25.1872 25.1732 25.0975 25.4673 24.9274C25.7615 24.7574 26.0057 24.513 26.1756 24.2188L28.3844 20.3438C28.6105 19.9553 28.6945 19.5003 28.6221 19.0567C28.5496 18.6131 28.3252 18.2085 27.9872 17.9122L26.1563 16.2362ZM24.4222 23.25L21.0994 22.1262C20.3211 22.7844 19.4322 23.2994 18.4741 23.6472L17.7863 27.125H13.2138L12.5259 23.6859C11.5753 23.3284 10.6913 22.8143 9.91031 22.165L6.57781 23.25L4.29156 19.375L6.92656 17.05C6.74744 16.0472 6.74744 15.0206 6.92656 14.0178L4.29156 11.625L6.57781 7.75L9.90063 8.87375C10.6789 8.21557 11.5678 7.70062 12.5259 7.35281L13.2138 3.875H17.7863L18.4741 7.31406C19.4247 7.67164 20.3087 8.18571 21.0897 8.835L24.4222 7.75L26.7084 11.625L24.0734 13.95C24.2526 14.9528 24.2526 15.9794 24.0734 16.9822L26.7084 19.375L24.4222 23.25Z" fill="#E6E6E6"/>
<path d="M15.5 21.3125C14.3504 21.3125 13.2266 20.9716 12.2708 20.3329C11.3149 19.6942 10.5699 18.7864 10.13 17.7243C9.69002 16.6623 9.57491 15.4936 9.79919 14.366C10.0235 13.2385 10.5771 12.2028 11.3899 11.3899C12.2028 10.5771 13.2385 10.0235 14.366 9.79919C15.4936 9.57491 16.6623 9.69002 17.7243 10.13C18.7864 10.5699 19.6942 11.3149 20.3329 12.2708C20.9716 13.2266 21.3125 14.3504 21.3125 15.5C21.3203 16.2655 21.1752 17.0248 20.8859 17.7335C20.5965 18.4422 20.1687 19.0861 19.6274 19.6274C19.0861 20.1687 18.4422 20.5965 17.7335 20.8859C17.0248 21.1752 16.2655 21.3203 15.5 21.3125ZM15.5 11.625C14.9879 11.6131 14.4786 11.7051 14.0031 11.8957C13.5276 12.0862 13.0956 12.3712 12.7334 12.7334C12.3712 13.0956 12.0862 13.5276 11.8957 14.0031C11.7051 14.4786 11.6131 14.9879 11.625 15.5C11.6131 16.0121 11.7051 16.5214 11.8957 16.9969C12.0862 17.4724 12.3712 17.9044 12.7334 18.2666C13.0956 18.6288 13.5276 18.9138 14.0031 19.1043C14.4786 19.2949 14.9879 19.3869 15.5 19.375C16.0121 19.3869 16.5214 19.2949 16.9969 19.1043C17.4724 18.9138 17.9044 18.6288 18.2666 18.2666C18.6288 17.9044 18.9138 17.4724 19.1043 16.9969C19.2949 16.5214 19.3869 16.0121 19.375 15.5C19.3869 14.9879 19.2949 14.4786 19.1043 14.0031C18.9138 13.5276 18.6288 13.0956 18.2666 12.7334C17.9044 12.3712 17.4724 12.0862 16.9969 11.8957C16.5214 11.7051 16.0121 11.6131 15.5 11.625Z" fill="#E6E6E6"/>
</svg>
